<?xml version="1.0" encoding="iso-8859-1"?>
<!-- Generator: Adobe Illustrator 19.0.0, SVG Export Plug-In . SVG Version: 6.00 Build 0)  -->
<svg version="1.1" id="Capa_1" xmlns="http://www.w3.org/2000/svg" xmlns:xlink="http://www.w3.org/1999/xlink" x="0px" y="0px"
	 viewBox="0 0 488.8 488.8" style="enable-background:new 0 0 488.8 488.8;" xml:space="preserve">
<g>
	<g>
		<path d="M442.6,74.9h-85.3V53.1c0-11.4-9.4-20.8-20.8-20.8h-70.7V20.8C265.8,9.4,256.4,0,245,0c-11.4,0-20.8,9.4-20.8,20.8v11.4
			h-70.8c-11.4,0-20.8,9.4-20.8,20.8v21.8H46.2c-11.4,0-20.8,9.4-20.8,20.8V468c0,11.4,9.4,20.8,20.8,20.8h397.4
			c10.4,0,19.8-9.4,19.8-20.8V95.7C463.4,84.3,454,74.9,442.6,74.9z M174.2,72.8h142.5v45.8H174.2V72.8z M422.8,448.4H67V116.5h65.5
			v21.8c0,11.4,9.4,20.8,20.8,20.8h183.1c11.4,0,20.8-9.4,20.8-19.8v-22.8h65.5v331.9H422.8z"/>
		<path d="M336.5,232H153.4c-11.4,0-20.8,9.4-20.8,20.8s9.4,20.8,20.8,20.8h183.1c11.4,0,20.8-9.4,20.8-20.8S347.9,232,336.5,232z"
			/>
		<path d="M336.5,347.5H153.4c-11.4,0-20.8,9.4-20.8,20.8s9.4,20.8,20.8,20.8h183.1c11.4,0,20.8-9.4,20.8-20.8
			S347.9,347.5,336.5,347.5z"/>
	</g>
</g>
<g>
</g>
<g>
</g>
<g>
</g>
<g>
</g>
<g>
</g>
<g>
</g>
<g>
</g>
<g>
</g>
<g>
</g>
<g>
</g>
<g>
</g>
<g>
</g>
<g>
</g>
<g>
</g>
<g>
</g>
</svg>
