<?xml version="1.0" encoding="iso-8859-1"?>
<!-- Generator: Adobe Illustrator 19.0.0, SVG Export Plug-In . SVG Version: 6.00 Build 0)  -->
<svg version="1.1" id="Layer_1" xmlns="http://www.w3.org/2000/svg" xmlns:xlink="http://www.w3.org/1999/xlink" x="0px" y="0px"
	 viewBox="0 0 512 512" style="enable-background:new 0 0 512 512;" xml:space="preserve">
<g>
	<g>
		<path d="M349.659,106.146v-31.22c0-24.1-19.607-43.707-43.707-43.707h-99.902c-24.1,0-43.707,19.607-43.707,43.707v31.22H0V480.78
			h512V106.146H349.659z M199.805,74.927c0-3.443,2.801-6.244,6.244-6.244h99.902c3.443,0,6.244,2.801,6.244,6.244v31.22h-112.39
			V74.927z M474.537,443.317H37.463V273.646c53.668,19.108,124.105,30.487,199.805,32.102v31.422h37.463v-31.422
			c75.7-1.616,146.137-12.995,199.805-32.102V443.317z M474.537,233.593c-50.262,20.311-122.881,32.9-199.805,34.671v-30.996
			h-37.463v30.995c-76.924-1.771-149.543-14.36-199.805-34.671V143.61h437.073V233.593z"/>
	</g>
</g>
<g>
</g>
<g>
</g>
<g>
</g>
<g>
</g>
<g>
</g>
<g>
</g>
<g>
</g>
<g>
</g>
<g>
</g>
<g>
</g>
<g>
</g>
<g>
</g>
<g>
</g>
<g>
</g>
<g>
</g>
</svg>
